<?xml version="1.0" encoding="UTF-8" standalone="no"?>
<!DOCTYPE svg PUBLIC "-//W3C//DTD SVG 1.1//EN"
 "http://www.w3.org/Graphics/SVG/1.1/DTD/svg11.dtd">
<!-- Generated by graphviz version 14.1.2 (20260126.1125)
 -->
<!-- Title: src/actpre.h Pages: 1 -->
<svg width="1110pt" height="111pt"
 viewBox="0.00 0.00 1110.00 111.00" xmlns="http://www.w3.org/2000/svg" xmlns:xlink="http://www.w3.org/1999/xlink">
<g id="graph0" class="graph" transform="scale(1 1) rotate(0) translate(4 107)">
<title>src/actpre.h</title>
<!-- Node1 -->
<g id="Node000001" class="node">
<title>Node1</title>
<g id="a_Node000001"><a xlink:title="Prerequisite header file for ACT build.">
<polygon fill="#999999" stroke="#666666" points="608,-103 535,-103 535,-82.25 608,-82.25 608,-103"/>
<text xml:space="preserve" text-anchor="middle" x="571.5" y="-89.5" font-family="Helvetica,sans-Serif" font-size="10.00">src/actpre.h</text>
</a>
</g>
</g>
<!-- Node2 -->
<g id="Node000002" class="node">
<title>Node2</title>
<g id="a_Node000002"><a xlink:href="actmol__util_8cpp.xhtml" target="_top" xlink:title="Implements test of bonded force routines.">
<polygon fill="white" stroke="#666666" points="121,-39.88 0,-39.88 0,-6.38 121,-6.38 121,-39.88"/>
<text xml:space="preserve" text-anchor="start" x="8" y="-26.38" font-family="Helvetica,sans-Serif" font-size="10.00">src/act/alexandria</text>
<text xml:space="preserve" text-anchor="middle" x="60.5" y="-13.62" font-family="Helvetica,sans-Serif" font-size="10.00">/tests/actmol_util.cpp</text>
</a>
</g>
</g>
<!-- Node1&#45;&gt;Node2 -->
<g id="edge1_Node000001_Node000002" class="edge">
<title>Node1&#45;&gt;Node2</title>
<g id="a_edge1_Node000001_Node000002"><a xlink:title=" ">
<path fill="none" stroke="#63b8ff" d="M523.32,-89.96C441.55,-86.4 270.73,-75.81 129.5,-46.25 121.99,-44.68 114.14,-42.6 106.54,-40.34"/>
<polygon fill="#63b8ff" stroke="#63b8ff" points="523.07,-93.45 533.21,-90.37 523.36,-86.45 523.07,-93.45"/>
</a>
</g>
</g>
<!-- Node3 -->
<g id="Node000003" class="node">
<title>Node3</title>
<g id="a_Node000003"><a xlink:href="forcecomputerTest_8cpp.xhtml" target="_top" xlink:title="Implements test of bonded force routines.">
<polygon fill="white" stroke="#666666" points="296,-39.88 139,-39.88 139,-6.38 296,-6.38 296,-39.88"/>
<text xml:space="preserve" text-anchor="start" x="147" y="-26.38" font-family="Helvetica,sans-Serif" font-size="10.00">src/act/alexandria</text>
<text xml:space="preserve" text-anchor="middle" x="217.5" y="-13.62" font-family="Helvetica,sans-Serif" font-size="10.00">/tests/forcecomputerTest.cpp</text>
</a>
</g>
</g>
<!-- Node1&#45;&gt;Node3 -->
<g id="edge2_Node000001_Node000003" class="edge">
<title>Node1&#45;&gt;Node3</title>
<g id="a_edge2_Node000001_Node000003"><a xlink:title=" ">
<path fill="none" stroke="#63b8ff" d="M523.59,-84.6C470.17,-76.49 381.31,-62.22 305.5,-46.25 297.02,-44.46 288.12,-42.42 279.38,-40.32"/>
<polygon fill="#63b8ff" stroke="#63b8ff" points="522.85,-88.02 533.26,-86.05 523.89,-81.1 522.85,-88.02"/>
</a>
</g>
</g>
<!-- Node4 -->
<g id="Node000004" class="node">
<title>Node4</title>
<g id="a_Node000004"><a xlink:href="mcmcmutatorTest_8cpp.xhtml" target="_top" xlink:title="Tests for MCMCMutator class.">
<polygon fill="white" stroke="#666666" points="468.88,-39.88 314.12,-39.88 314.12,-6.38 468.88,-6.38 468.88,-39.88"/>
<text xml:space="preserve" text-anchor="start" x="322.12" y="-26.38" font-family="Helvetica,sans-Serif" font-size="10.00">src/act/alexandria</text>
<text xml:space="preserve" text-anchor="middle" x="391.5" y="-13.62" font-family="Helvetica,sans-Serif" font-size="10.00">/tests/mcmcmutatorTest.cpp</text>
</a>
</g>
</g>
<!-- Node1&#45;&gt;Node4 -->
<g id="edge3_Node000001_Node000004" class="edge">
<title>Node1&#45;&gt;Node4</title>
<g id="a_edge3_Node000001_Node000004"><a xlink:title=" ">
<path fill="none" stroke="#63b8ff" d="M534.83,-77.87C505.85,-67.01 465.34,-51.81 434.77,-40.35"/>
<polygon fill="#63b8ff" stroke="#63b8ff" points="533.32,-81.04 543.91,-81.28 535.77,-74.49 533.32,-81.04"/>
</a>
</g>
</g>
<!-- Node5 -->
<g id="Node000005" class="node">
<title>Node5</title>
<g id="a_Node000005"><a xlink:href="forceComputerImplementationTest_8cpp.xhtml" target="_top" xlink:title="Implements test of bonded force routines.">
<polygon fill="white" stroke="#666666" points="656.38,-46.25 486.62,-46.25 486.62,0 656.38,0 656.38,-46.25"/>
<text xml:space="preserve" text-anchor="start" x="494.62" y="-32.75" font-family="Helvetica,sans-Serif" font-size="10.00">src/act/forces/tests</text>
<text xml:space="preserve" text-anchor="start" x="494.62" y="-20" font-family="Helvetica,sans-Serif" font-size="10.00">/forceComputerImplementation</text>
<text xml:space="preserve" text-anchor="middle" x="571.5" y="-7.25" font-family="Helvetica,sans-Serif" font-size="10.00">Test.cpp</text>
</a>
</g>
</g>
<!-- Node1&#45;&gt;Node5 -->
<g id="edge4_Node000001_Node000005" class="edge">
<title>Node1&#45;&gt;Node5</title>
<g id="a_edge4_Node000001_Node000005"><a xlink:title=" ">
<path fill="none" stroke="#63b8ff" d="M571.5,-70.46C571.5,-62.87 571.5,-54.3 571.5,-46.61"/>
<polygon fill="#63b8ff" stroke="#63b8ff" points="568,-70.44 571.5,-80.44 575,-70.44 568,-70.44"/>
</a>
</g>
</g>
<!-- Node6 -->
<g id="Node000006" class="node">
<title>Node6</title>
<g id="a_Node000006"><a xlink:href="forceComputerTest_8cpp.xhtml" target="_top" xlink:title="Tests for the ForceComputer class: initialization, ftype(), computeOnce(), compute(),...">
<polygon fill="white" stroke="#666666" points="806.25,-39.88 674.75,-39.88 674.75,-6.38 806.25,-6.38 806.25,-39.88"/>
<text xml:space="preserve" text-anchor="start" x="682.75" y="-26.38" font-family="Helvetica,sans-Serif" font-size="10.00">src/act/forces/tests</text>
<text xml:space="preserve" text-anchor="middle" x="740.5" y="-13.62" font-family="Helvetica,sans-Serif" font-size="10.00">/forceComputerTest.cpp</text>
</a>
</g>
</g>
<!-- Node1&#45;&gt;Node6 -->
<g id="edge5_Node000001_Node000006" class="edge">
<title>Node1&#45;&gt;Node6</title>
<g id="a_edge5_Node000001_Node000006"><a xlink:title=" ">
<path fill="none" stroke="#63b8ff" d="M606.65,-77.59C633.8,-66.74 671.43,-51.71 699.87,-40.35"/>
<polygon fill="#63b8ff" stroke="#63b8ff" points="605.47,-74.29 597.48,-81.25 608.06,-80.79 605.47,-74.29"/>
</a>
</g>
</g>
<!-- Node7 -->
<g id="Node000007" class="node">
<title>Node7</title>
<g id="a_Node000007"><a xlink:href="forcecomputerutilsTest_8cpp.xhtml" target="_top" xlink:title="Implements test of bonded force routines.">
<polygon fill="white" stroke="#666666" points="975,-39.88 824,-39.88 824,-6.38 975,-6.38 975,-39.88"/>
<text xml:space="preserve" text-anchor="start" x="832" y="-26.38" font-family="Helvetica,sans-Serif" font-size="10.00">src/act/forces/tests</text>
<text xml:space="preserve" text-anchor="middle" x="899.5" y="-13.62" font-family="Helvetica,sans-Serif" font-size="10.00">/forcecomputerutilsTest.cpp</text>
</a>
</g>
</g>
<!-- Node1&#45;&gt;Node7 -->
<g id="edge6_Node000001_Node000007" class="edge">
<title>Node1&#45;&gt;Node7</title>
<g id="a_edge6_Node000001_Node000007"><a xlink:title=" ">
<path fill="none" stroke="#63b8ff" d="M619.75,-83.73C669.13,-75.4 747.97,-61.4 815.5,-46.25 823.59,-44.43 832.09,-42.38 840.43,-40.27"/>
<polygon fill="#63b8ff" stroke="#63b8ff" points="619.24,-80.27 609.96,-85.37 620.4,-87.17 619.24,-80.27"/>
</a>
</g>
</g>
<!-- Node8 -->
<g id="Node000008" class="node">
<title>Node8</title>
<g id="a_Node000008"><a xlink:href="vsiteTest_8cpp.xhtml" target="_top" xlink:title="Implements test of bonded force routines.">
<polygon fill="white" stroke="#666666" points="1101.62,-39.88 993.38,-39.88 993.38,-6.38 1101.62,-6.38 1101.62,-39.88"/>
<text xml:space="preserve" text-anchor="start" x="1001.38" y="-26.38" font-family="Helvetica,sans-Serif" font-size="10.00">src/act/forces/tests</text>
<text xml:space="preserve" text-anchor="middle" x="1047.5" y="-13.62" font-family="Helvetica,sans-Serif" font-size="10.00">/vsiteTest.cpp</text>
</a>
</g>
</g>
<!-- Node1&#45;&gt;Node8 -->
<g id="edge7_Node000001_Node000008" class="edge">
<title>Node1&#45;&gt;Node8</title>
<g id="a_edge7_Node000001_Node000008"><a xlink:title=" ">
<path fill="none" stroke="#63b8ff" d="M619.75,-89.89C697.45,-86.3 854.71,-75.76 984.5,-46.25 991.4,-44.68 998.58,-42.61 1005.53,-40.35"/>
<polygon fill="#63b8ff" stroke="#63b8ff" points="619.78,-86.39 609.94,-90.32 620.08,-93.38 619.78,-86.39"/>
</a>
</g>
</g>
</g>
</svg>
