<?xml version="1.0" encoding="UTF-8" standalone="no"?>
<!DOCTYPE svg PUBLIC "-//W3C//DTD SVG 1.1//EN"
 "http://www.w3.org/Graphics/SVG/1.1/DTD/svg11.dtd">
<!-- Generated by graphviz version 14.1.2 (20260126.1125)
 -->
<!-- Title: src/actpre.h Pages: 1 -->
<svg width="937pt" height="111pt"
 viewBox="0.00 0.00 937.00 111.00" xmlns="http://www.w3.org/2000/svg" xmlns:xlink="http://www.w3.org/1999/xlink">
<g id="graph0" class="graph" transform="scale(1 1) rotate(0) translate(4 107)">
<title>src/actpre.h</title>
<!-- Node1 -->
<g id="Node000001" class="node">
<title>Node1</title>
<g id="a_Node000001"><a xlink:title="Prerequisite header file for ACT build.">
<polygon fill="#999999" stroke="#666666" points="519,-103 446,-103 446,-82.25 519,-82.25 519,-103"/>
<text xml:space="preserve" text-anchor="middle" x="482.5" y="-89.5" font-family="Helvetica,sans-Serif" font-size="10.00">src/actpre.h</text>
</a>
</g>
</g>
<!-- Node2 -->
<g id="Node000002" class="node">
<title>Node2</title>
<g id="a_Node000002"><a xlink:href="actmol__util_8cpp.xhtml" target="_top" xlink:title="Implements test of bonded force routines.">
<polygon fill="white" stroke="#666666" points="121,-39.88 0,-39.88 0,-6.38 121,-6.38 121,-39.88"/>
<text xml:space="preserve" text-anchor="start" x="8" y="-26.38" font-family="Helvetica,sans-Serif" font-size="10.00">src/act/alexandria</text>
<text xml:space="preserve" text-anchor="middle" x="60.5" y="-13.62" font-family="Helvetica,sans-Serif" font-size="10.00">/tests/actmol_util.cpp</text>
</a>
</g>
</g>
<!-- Node1&#45;&gt;Node2 -->
<g id="edge1_Node000001_Node000002" class="edge">
<title>Node1&#45;&gt;Node2</title>
<g id="a_edge1_Node000001_Node000002"><a xlink:title=" ">
<path fill="none" stroke="#63b8ff" d="M434.28,-88.23C365.86,-82.78 236.97,-70.18 129.5,-46.25 122.13,-44.61 114.43,-42.52 106.95,-40.29"/>
<polygon fill="#63b8ff" stroke="#63b8ff" points="433.78,-91.7 444.02,-88.99 434.32,-84.72 433.78,-91.7"/>
</a>
</g>
</g>
<!-- Node3 -->
<g id="Node000003" class="node">
<title>Node3</title>
<g id="a_Node000003"><a xlink:href="forcecomputerTest_8cpp.xhtml" target="_top" xlink:title="Implements test of bonded force routines.">
<polygon fill="white" stroke="#666666" points="296,-39.88 139,-39.88 139,-6.38 296,-6.38 296,-39.88"/>
<text xml:space="preserve" text-anchor="start" x="147" y="-26.38" font-family="Helvetica,sans-Serif" font-size="10.00">src/act/alexandria</text>
<text xml:space="preserve" text-anchor="middle" x="217.5" y="-13.62" font-family="Helvetica,sans-Serif" font-size="10.00">/tests/forcecomputerTest.cpp</text>
</a>
</g>
</g>
<!-- Node1&#45;&gt;Node3 -->
<g id="edge2_Node000001_Node000003" class="edge">
<title>Node1&#45;&gt;Node3</title>
<g id="a_edge2_Node000001_Node000003"><a xlink:title=" ">
<path fill="none" stroke="#63b8ff" d="M434.67,-79.44C391.76,-68.51 328.48,-52.39 281.28,-40.37"/>
<polygon fill="#63b8ff" stroke="#63b8ff" points="433.63,-82.79 444.19,-81.87 435.36,-76.01 433.63,-82.79"/>
</a>
</g>
</g>
<!-- Node4 -->
<g id="Node000004" class="node">
<title>Node4</title>
<g id="a_Node000004"><a xlink:href="forceComputerImplementationTest_8cpp.xhtml" target="_top" xlink:title="Implements test of bonded force routines.">
<polygon fill="white" stroke="#666666" points="483.38,-46.25 313.62,-46.25 313.62,0 483.38,0 483.38,-46.25"/>
<text xml:space="preserve" text-anchor="start" x="321.62" y="-32.75" font-family="Helvetica,sans-Serif" font-size="10.00">src/act/forces/tests</text>
<text xml:space="preserve" text-anchor="start" x="321.62" y="-20" font-family="Helvetica,sans-Serif" font-size="10.00">/forceComputerImplementation</text>
<text xml:space="preserve" text-anchor="middle" x="398.5" y="-7.25" font-family="Helvetica,sans-Serif" font-size="10.00">Test.cpp</text>
</a>
</g>
</g>
<!-- Node1&#45;&gt;Node4 -->
<g id="edge3_Node000001_Node000004" class="edge">
<title>Node1&#45;&gt;Node4</title>
<g id="a_edge3_Node000001_Node000004"><a xlink:title=" ">
<path fill="none" stroke="#63b8ff" d="M461.52,-74.77C450.92,-66.25 437.92,-55.8 426.48,-46.61"/>
<polygon fill="#63b8ff" stroke="#63b8ff" points="459.3,-77.47 469.29,-81.01 463.68,-72.01 459.3,-77.47"/>
</a>
</g>
</g>
<!-- Node5 -->
<g id="Node000005" class="node">
<title>Node5</title>
<g id="a_Node000005"><a xlink:href="forceComputerTest_8cpp.xhtml" target="_top" xlink:title="Tests for the ForceComputer class: initialization, ftype(), computeOnce(), compute(),...">
<polygon fill="white" stroke="#666666" points="633.25,-39.88 501.75,-39.88 501.75,-6.38 633.25,-6.38 633.25,-39.88"/>
<text xml:space="preserve" text-anchor="start" x="509.75" y="-26.38" font-family="Helvetica,sans-Serif" font-size="10.00">src/act/forces/tests</text>
<text xml:space="preserve" text-anchor="middle" x="567.5" y="-13.62" font-family="Helvetica,sans-Serif" font-size="10.00">/forceComputerTest.cpp</text>
</a>
</g>
</g>
<!-- Node1&#45;&gt;Node5 -->
<g id="edge4_Node000001_Node000005" class="edge">
<title>Node1&#45;&gt;Node5</title>
<g id="a_edge4_Node000001_Node000005"><a xlink:title=" ">
<path fill="none" stroke="#63b8ff" d="M503.58,-74.88C516.89,-64.32 533.98,-50.75 547.14,-40.29"/>
<polygon fill="#63b8ff" stroke="#63b8ff" points="501.52,-72.05 495.86,-81.01 505.87,-77.53 501.52,-72.05"/>
</a>
</g>
</g>
<!-- Node6 -->
<g id="Node000006" class="node">
<title>Node6</title>
<g id="a_Node000006"><a xlink:href="forcecomputerutilsTest_8cpp.xhtml" target="_top" xlink:title="Implements test of bonded force routines.">
<polygon fill="white" stroke="#666666" points="802,-39.88 651,-39.88 651,-6.38 802,-6.38 802,-39.88"/>
<text xml:space="preserve" text-anchor="start" x="659" y="-26.38" font-family="Helvetica,sans-Serif" font-size="10.00">src/act/forces/tests</text>
<text xml:space="preserve" text-anchor="middle" x="726.5" y="-13.62" font-family="Helvetica,sans-Serif" font-size="10.00">/forcecomputerutilsTest.cpp</text>
</a>
</g>
</g>
<!-- Node1&#45;&gt;Node6 -->
<g id="edge5_Node000001_Node000006" class="edge">
<title>Node1&#45;&gt;Node6</title>
<g id="a_edge5_Node000001_Node000006"><a xlink:title=" ">
<path fill="none" stroke="#63b8ff" d="M528.87,-78.8C568.33,-67.88 625.22,-52.14 667.84,-40.35"/>
<polygon fill="#63b8ff" stroke="#63b8ff" points="528.14,-75.37 519.44,-81.41 530.01,-82.11 528.14,-75.37"/>
</a>
</g>
</g>
<!-- Node7 -->
<g id="Node000007" class="node">
<title>Node7</title>
<g id="a_Node000007"><a xlink:href="vsiteTest_8cpp.xhtml" target="_top" xlink:title="Implements test of bonded force routines.">
<polygon fill="white" stroke="#666666" points="928.62,-39.88 820.38,-39.88 820.38,-6.38 928.62,-6.38 928.62,-39.88"/>
<text xml:space="preserve" text-anchor="start" x="828.38" y="-26.38" font-family="Helvetica,sans-Serif" font-size="10.00">src/act/forces/tests</text>
<text xml:space="preserve" text-anchor="middle" x="874.5" y="-13.62" font-family="Helvetica,sans-Serif" font-size="10.00">/vsiteTest.cpp</text>
</a>
</g>
</g>
<!-- Node1&#45;&gt;Node7 -->
<g id="edge6_Node000001_Node000007" class="edge">
<title>Node1&#45;&gt;Node7</title>
<g id="a_edge6_Node000001_Node000007"><a xlink:title=" ">
<path fill="none" stroke="#63b8ff" d="M530.9,-88.01C595.56,-82.48 713.37,-69.99 811.5,-46.25 818.26,-44.61 825.31,-42.53 832.15,-40.3"/>
<polygon fill="#63b8ff" stroke="#63b8ff" points="530.65,-84.52 520.97,-88.83 531.23,-91.49 530.65,-84.52"/>
</a>
</g>
</g>
</g>
</svg>
