<?xml version="1.0" encoding="UTF-8" standalone="no"?>
<!DOCTYPE svg PUBLIC "-//W3C//DTD SVG 1.1//EN"
 "http://www.w3.org/Graphics/SVG/1.1/DTD/svg11.dtd">
<!-- Generated by graphviz version 14.1.2 (20260126.1125)
 -->
<!-- Title: ga::Terminator Pages: 1 -->
<svg width="445pt" height="86pt"
 viewBox="0.00 0.00 445.00 86.00" xmlns="http://www.w3.org/2000/svg" xmlns:xlink="http://www.w3.org/1999/xlink">
<g id="graph0" class="graph" transform="scale(1 1) rotate(0) translate(4 81.5)">
<title>ga::Terminator</title>
<!-- Node1 -->
<g id="Node000001" class="node">
<title>Node1</title>
<g id="a_Node000001"><a xlink:title="Abstract class to check for evolution termination conditions.">
<polygon fill="#999999" stroke="#666666" points="266.5,-77.5 180,-77.5 180,-56.75 266.5,-56.75 266.5,-77.5"/>
<text xml:space="preserve" text-anchor="middle" x="223.25" y="-64" font-family="Helvetica,sans-Serif" font-size="10.00">ga::Terminator</text>
</a>
</g>
</g>
<!-- Node2 -->
<g id="Node000002" class="node">
<title>Node2</title>
<g id="a_Node000002"><a xlink:href="classga_1_1CurvatureTerminator.xhtml" target="_top" xlink:title="Terminator which stops when evolution is stuck in a local minimum Evaluates whether the best genome s...">
<polygon fill="white" stroke="#666666" points="134.5,-20.75 0,-20.75 0,0 134.5,0 134.5,-20.75"/>
<text xml:space="preserve" text-anchor="middle" x="67.25" y="-7.25" font-family="Helvetica,sans-Serif" font-size="10.00">ga::CurvatureTerminator</text>
</a>
</g>
</g>
<!-- Node1&#45;&gt;Node2 -->
<g id="edge1_Node000001_Node000002" class="edge">
<title>Node1&#45;&gt;Node2</title>
<g id="a_edge1_Node000001_Node000002"><a xlink:title=" ">
<path fill="none" stroke="#63b8ff" d="M184.83,-52.64C157.05,-42.89 120.16,-29.94 95.16,-21.17"/>
<polygon fill="#63b8ff" stroke="#63b8ff" points="183.34,-55.83 193.93,-55.84 185.66,-49.22 183.34,-55.83"/>
</a>
</g>
</g>
<!-- Node3 -->
<g id="Node000003" class="node">
<title>Node3</title>
<g id="a_Node000003"><a xlink:href="classga_1_1GenerationTerminator.xhtml" target="_top" xlink:title="Terminator which stops evolution after a given amount of generations.">
<polygon fill="white" stroke="#666666" points="293.5,-20.75 153,-20.75 153,0 293.5,0 293.5,-20.75"/>
<text xml:space="preserve" text-anchor="middle" x="223.25" y="-7.25" font-family="Helvetica,sans-Serif" font-size="10.00">ga::GenerationTerminator</text>
</a>
</g>
</g>
<!-- Node1&#45;&gt;Node3 -->
<g id="edge2_Node000001_Node000003" class="edge">
<title>Node1&#45;&gt;Node3</title>
<g id="a_edge2_Node000001_Node000003"><a xlink:title=" ">
<path fill="none" stroke="#63b8ff" d="M223.25,-44.88C223.25,-36.66 223.25,-27.68 223.25,-21.08"/>
<polygon fill="#63b8ff" stroke="#63b8ff" points="219.75,-44.82 223.25,-54.82 226.75,-44.82 219.75,-44.82"/>
</a>
</g>
</g>
<!-- Node4 -->
<g id="Node000004" class="node">
<title>Node4</title>
<g id="a_Node000004"><a xlink:href="classga_1_1TestGenTerminator.xhtml" target="_top" xlink:title="Terminator which stops evolution after the best test fitness has not improved in a given number of ge...">
<polygon fill="white" stroke="#666666" points="437,-20.75 311.5,-20.75 311.5,0 437,0 437,-20.75"/>
<text xml:space="preserve" text-anchor="middle" x="374.25" y="-7.25" font-family="Helvetica,sans-Serif" font-size="10.00">ga::TestGenTerminator</text>
</a>
</g>
</g>
<!-- Node1&#45;&gt;Node4 -->
<g id="edge3_Node000001_Node000004" class="edge">
<title>Node1&#45;&gt;Node4</title>
<g id="a_edge3_Node000001_Node000004"><a xlink:title=" ">
<path fill="none" stroke="#63b8ff" d="M260.8,-52.51C287.64,-42.78 323.15,-29.9 347.23,-21.17"/>
<polygon fill="#63b8ff" stroke="#63b8ff" points="259.88,-49.12 251.67,-55.82 262.26,-55.7 259.88,-49.12"/>
</a>
</g>
</g>
</g>
</svg>
