<?xml version="1.0" encoding="UTF-8" standalone="no"?>
<!DOCTYPE svg PUBLIC "-//W3C//DTD SVG 1.1//EN"
 "http://www.w3.org/Graphics/SVG/1.1/DTD/svg11.dtd">
<!-- Generated by graphviz version 14.1.2 (20260126.1125)
 -->
<!-- Title: src/act/forces/tests/forceComputerTest.cpp Pages: 1 -->
<svg width="729pt" height="98pt"
 viewBox="0.00 0.00 729.00 98.00" xmlns="http://www.w3.org/2000/svg" xmlns:xlink="http://www.w3.org/1999/xlink">
<g id="graph0" class="graph" transform="scale(1 1) rotate(0) translate(4 94.25)">
<title>src/act/forces/tests/forceComputerTest.cpp</title>
<!-- Node1 -->
<g id="Node000001" class="node">
<title>Node1</title>
<g id="a_Node000001"><a xlink:title="Tests for the ForceComputer class: initialization, ftype(), computeOnce(), compute(),...">
<polygon fill="#999999" stroke="#666666" points="312.62,-90.25 181.12,-90.25 181.12,-56.75 312.62,-56.75 312.62,-90.25"/>
<text xml:space="preserve" text-anchor="start" x="189.12" y="-76.75" font-family="Helvetica,sans-Serif" font-size="10.00">src/act/forces/tests</text>
<text xml:space="preserve" text-anchor="middle" x="246.88" y="-64" font-family="Helvetica,sans-Serif" font-size="10.00">/forceComputerTest.cpp</text>
</a>
</g>
</g>
<!-- Node2 -->
<g id="Node000002" class="node">
<title>Node2</title>
<g id="a_Node000002"><a xlink:href="actpre_8h.xhtml" target="_top" xlink:title="Prerequisite header file for ACT build.">
<polygon fill="white" stroke="#666666" points="55.75,-20.75 0,-20.75 0,0 55.75,0 55.75,-20.75"/>
<text xml:space="preserve" text-anchor="middle" x="27.88" y="-7.25" font-family="Helvetica,sans-Serif" font-size="10.00">actpre.h</text>
</a>
</g>
</g>
<!-- Node1&#45;&gt;Node2 -->
<g id="edge1_Node000001_Node000002" class="edge">
<title>Node1&#45;&gt;Node2</title>
<g id="a_edge1_Node000001_Node000002"><a xlink:title=" ">
<path fill="none" stroke="#63b8ff" d="M188.76,-56.28C150.28,-45.54 100.85,-31.74 67,-22.29"/>
<polygon fill="#63b8ff" stroke="#63b8ff" points="68.18,-18.99 57.61,-19.67 66.3,-25.73 68.18,-18.99"/>
</a>
</g>
</g>
<!-- Node3 -->
<g id="Node000003" class="node">
<title>Node3</title>
<g id="a_Node000003"><a xlink:title=" ">
<polygon fill="#e0e0e0" stroke="#999999" points="120.25,-20.75 73.5,-20.75 73.5,0 120.25,0 120.25,-20.75"/>
<text xml:space="preserve" text-anchor="middle" x="96.88" y="-7.25" font-family="Helvetica,sans-Serif" font-size="10.00">cmath</text>
</a>
</g>
</g>
<!-- Node1&#45;&gt;Node3 -->
<g id="edge2_Node000001_Node000003" class="edge">
<title>Node1&#45;&gt;Node3</title>
<g id="a_edge2_Node000001_Node000003"><a xlink:title=" ">
<path fill="none" stroke="#63b8ff" d="M207.07,-56.28C183.35,-46.61 153.56,-34.47 130.93,-25.25"/>
<polygon fill="#63b8ff" stroke="#63b8ff" points="132.44,-22.09 121.86,-21.56 129.8,-28.57 132.44,-22.09"/>
</a>
</g>
</g>
<!-- Node4 -->
<g id="Node000004" class="node">
<title>Node4</title>
<g id="a_Node000004"><a xlink:title=" ">
<polygon fill="#e0e0e0" stroke="#999999" points="175.75,-20.75 138,-20.75 138,0 175.75,0 175.75,-20.75"/>
<text xml:space="preserve" text-anchor="middle" x="156.88" y="-7.25" font-family="Helvetica,sans-Serif" font-size="10.00">map</text>
</a>
</g>
</g>
<!-- Node1&#45;&gt;Node4 -->
<g id="edge3_Node000001_Node000004" class="edge">
<title>Node1&#45;&gt;Node4</title>
<g id="a_edge3_Node000001_Node000004"><a xlink:title=" ">
<path fill="none" stroke="#63b8ff" d="M223.23,-56.44C210.11,-47.53 193.85,-36.49 180.71,-27.56"/>
<polygon fill="#63b8ff" stroke="#63b8ff" points="182.86,-24.79 172.62,-22.07 178.92,-30.58 182.86,-24.79"/>
</a>
</g>
</g>
<!-- Node5 -->
<g id="Node000005" class="node">
<title>Node5</title>
<g id="a_Node000005"><a xlink:title=" ">
<polygon fill="#e0e0e0" stroke="#999999" points="237.75,-20.75 194,-20.75 194,0 237.75,0 237.75,-20.75"/>
<text xml:space="preserve" text-anchor="middle" x="215.88" y="-7.25" font-family="Helvetica,sans-Serif" font-size="10.00">string</text>
</a>
</g>
</g>
<!-- Node1&#45;&gt;Node5 -->
<g id="edge4_Node000001_Node000005" class="edge">
<title>Node1&#45;&gt;Node5</title>
<g id="a_edge4_Node000001_Node000005"><a xlink:title=" ">
<path fill="none" stroke="#63b8ff" d="M238.73,-56.44C234.83,-48.76 230.13,-39.48 226,-31.34"/>
<polygon fill="#63b8ff" stroke="#63b8ff" points="229.2,-29.9 221.55,-22.57 222.95,-33.07 229.2,-29.9"/>
</a>
</g>
</g>
<!-- Node6 -->
<g id="Node000006" class="node">
<title>Node6</title>
<g id="a_Node000006"><a xlink:title=" ">
<polygon fill="#e0e0e0" stroke="#999999" points="302.25,-20.75 255.5,-20.75 255.5,0 302.25,0 302.25,-20.75"/>
<text xml:space="preserve" text-anchor="middle" x="278.88" y="-7.25" font-family="Helvetica,sans-Serif" font-size="10.00">vector</text>
</a>
</g>
</g>
<!-- Node1&#45;&gt;Node6 -->
<g id="edge5_Node000001_Node000006" class="edge">
<title>Node1&#45;&gt;Node6</title>
<g id="a_edge5_Node000001_Node000006"><a xlink:title=" ">
<path fill="none" stroke="#63b8ff" d="M255.28,-56.44C259.31,-48.76 264.16,-39.48 268.42,-31.34"/>
<polygon fill="#63b8ff" stroke="#63b8ff" points="271.48,-33.04 273.02,-22.56 265.28,-29.79 271.48,-33.04"/>
</a>
</g>
</g>
<!-- Node7 -->
<g id="Node000007" class="node">
<title>Node7</title>
<g id="a_Node000007"><a xlink:title=" ">
<polygon fill="#e0e0e0" stroke="#999999" points="397.62,-20.75 320.12,-20.75 320.12,0 397.62,0 397.62,-20.75"/>
<text xml:space="preserve" text-anchor="middle" x="358.88" y="-7.25" font-family="Helvetica,sans-Serif" font-size="10.00">gtest/gtest.h</text>
</a>
</g>
</g>
<!-- Node1&#45;&gt;Node7 -->
<g id="edge6_Node000001_Node000007" class="edge">
<title>Node1&#45;&gt;Node7</title>
<g id="a_edge6_Node000001_Node000007"><a xlink:title=" ">
<path fill="none" stroke="#63b8ff" d="M276.59,-56.28C293.55,-47.02 314.67,-35.5 331.27,-26.44"/>
<polygon fill="#63b8ff" stroke="#63b8ff" points="332.51,-29.75 339.61,-21.89 329.15,-23.61 332.51,-29.75"/>
</a>
</g>
</g>
<!-- Node8 -->
<g id="Node000008" class="node">
<title>Node8</title>
<g id="a_Node000008"><a xlink:title=" ">
<polygon fill="#e0e0e0" stroke="#999999" points="558.25,-20.75 415.5,-20.75 415.5,0 558.25,0 558.25,-20.75"/>
<text xml:space="preserve" text-anchor="middle" x="486.88" y="-7.25" font-family="Helvetica,sans-Serif" font-size="10.00">gromacs/math/vectypes.h</text>
</a>
</g>
</g>
<!-- Node1&#45;&gt;Node8 -->
<g id="edge7_Node000001_Node000008" class="edge">
<title>Node1&#45;&gt;Node8</title>
<g id="a_edge7_Node000001_Node000008"><a xlink:title=" ">
<path fill="none" stroke="#63b8ff" d="M310.56,-56.28C350.33,-46.15 400.77,-33.3 437.5,-23.95"/>
<polygon fill="#63b8ff" stroke="#63b8ff" points="438.14,-27.4 446.97,-21.54 436.41,-20.62 438.14,-27.4"/>
</a>
</g>
</g>
<!-- Node9 -->
<g id="Node000009" class="node">
<title>Node9</title>
<g id="a_Node000009"><a xlink:title=" ">
<polygon fill="#e0e0e0" stroke="#999999" points="721,-20.75 576.75,-20.75 576.75,0 721,0 721,-20.75"/>
<text xml:space="preserve" text-anchor="middle" x="648.88" y="-7.25" font-family="Helvetica,sans-Serif" font-size="10.00">testutils/testfilemanager.h</text>
</a>
</g>
</g>
<!-- Node1&#45;&gt;Node9 -->
<g id="edge8_Node000001_Node000009" class="edge">
<title>Node1&#45;&gt;Node9</title>
<g id="a_edge8_Node000001_Node000009"><a xlink:title=" ">
<path fill="none" stroke="#63b8ff" d="M312.81,-62.47C384.21,-51.62 497.93,-34.33 572.99,-22.91"/>
<polygon fill="#63b8ff" stroke="#63b8ff" points="573.38,-26.39 582.74,-21.43 572.33,-19.47 573.38,-26.39"/>
</a>
</g>
</g>
</g>
</svg>
