<?xml version="1.0" encoding="UTF-8" standalone="no"?>
<!DOCTYPE svg PUBLIC "-//W3C//DTD SVG 1.1//EN"
 "http://www.w3.org/Graphics/SVG/1.1/DTD/svg11.dtd">
<!-- Generated by graphviz version 14.1.2 (20260126.1125)
 -->
<!-- Title: src/act/forces/tests/forceComputerImplementationTest.cpp Pages: 1 -->
<svg width="1246pt" height="111pt"
 viewBox="0.00 0.00 1246.00 111.00" xmlns="http://www.w3.org/2000/svg" xmlns:xlink="http://www.w3.org/1999/xlink">
<g id="graph0" class="graph" transform="scale(1 1) rotate(0) translate(4 107)">
<title>src/act/forces/tests/forceComputerImplementationTest.cpp</title>
<!-- Node1 -->
<g id="Node000001" class="node">
<title>Node1</title>
<g id="a_Node000001"><a xlink:title="Implements test of bonded force routines.">
<polygon fill="#999999" stroke="#666666" points="525.75,-103 356,-103 356,-56.75 525.75,-56.75 525.75,-103"/>
<text xml:space="preserve" text-anchor="start" x="364" y="-89.5" font-family="Helvetica,sans-Serif" font-size="10.00">src/act/forces/tests</text>
<text xml:space="preserve" text-anchor="start" x="364" y="-76.75" font-family="Helvetica,sans-Serif" font-size="10.00">/forceComputerImplementation</text>
<text xml:space="preserve" text-anchor="middle" x="440.88" y="-64" font-family="Helvetica,sans-Serif" font-size="10.00">Test.cpp</text>
</a>
</g>
</g>
<!-- Node2 -->
<g id="Node000002" class="node">
<title>Node2</title>
<g id="a_Node000002"><a xlink:href="actpre_8h.xhtml" target="_top" xlink:title="Prerequisite header file for ACT build.">
<polygon fill="white" stroke="#666666" points="55.75,-20.75 0,-20.75 0,0 55.75,0 55.75,-20.75"/>
<text xml:space="preserve" text-anchor="middle" x="27.88" y="-7.25" font-family="Helvetica,sans-Serif" font-size="10.00">actpre.h</text>
</a>
</g>
</g>
<!-- Node1&#45;&gt;Node2 -->
<g id="edge1_Node000001_Node000002" class="edge">
<title>Node1&#45;&gt;Node2</title>
<g id="a_edge1_Node000001_Node000002"><a xlink:title=" ">
<path fill="none" stroke="#63b8ff" d="M355.72,-68.06C281.86,-58.14 171.9,-42.08 67.19,-21.07"/>
<polygon fill="#63b8ff" stroke="#63b8ff" points="68.07,-17.68 57.58,-19.12 66.68,-24.54 68.07,-17.68"/>
</a>
</g>
</g>
<!-- Node3 -->
<g id="Node000003" class="node">
<title>Node3</title>
<g id="a_Node000003"><a xlink:title=" ">
<polygon fill="#e0e0e0" stroke="#999999" points="120.25,-20.75 73.5,-20.75 73.5,0 120.25,0 120.25,-20.75"/>
<text xml:space="preserve" text-anchor="middle" x="96.88" y="-7.25" font-family="Helvetica,sans-Serif" font-size="10.00">cmath</text>
</a>
</g>
</g>
<!-- Node1&#45;&gt;Node3 -->
<g id="edge2_Node000001_Node000003" class="edge">
<title>Node1&#45;&gt;Node3</title>
<g id="a_edge2_Node000001_Node000003"><a xlink:title=" ">
<path fill="none" stroke="#63b8ff" d="M355.62,-65.12C295.58,-54.93 213.12,-39.92 131.58,-20.97"/>
<polygon fill="#63b8ff" stroke="#63b8ff" points="132.61,-17.62 122.07,-18.74 131.01,-24.43 132.61,-17.62"/>
</a>
</g>
</g>
<!-- Node4 -->
<g id="Node000004" class="node">
<title>Node4</title>
<g id="a_Node000004"><a xlink:title=" ">
<polygon fill="#e0e0e0" stroke="#999999" points="203.25,-20.75 138.5,-20.75 138.5,0 203.25,0 203.25,-20.75"/>
<text xml:space="preserve" text-anchor="middle" x="170.88" y="-7.25" font-family="Helvetica,sans-Serif" font-size="10.00">functional</text>
</a>
</g>
</g>
<!-- Node1&#45;&gt;Node4 -->
<g id="edge3_Node000001_Node000004" class="edge">
<title>Node1&#45;&gt;Node4</title>
<g id="a_edge3_Node000001_Node000004"><a xlink:title=" ">
<path fill="none" stroke="#63b8ff" d="M355.82,-57.61C308.83,-45.86 252.44,-31.77 214.38,-22.25"/>
<polygon fill="#63b8ff" stroke="#63b8ff" points="215.69,-18.97 205.14,-19.94 213.99,-25.76 215.69,-18.97"/>
</a>
</g>
</g>
<!-- Node5 -->
<g id="Node000005" class="node">
<title>Node5</title>
<g id="a_Node000005"><a xlink:title=" ">
<polygon fill="#e0e0e0" stroke="#999999" points="278.5,-20.75 221.25,-20.75 221.25,0 278.5,0 278.5,-20.75"/>
<text xml:space="preserve" text-anchor="middle" x="249.88" y="-7.25" font-family="Helvetica,sans-Serif" font-size="10.00">memory</text>
</a>
</g>
</g>
<!-- Node1&#45;&gt;Node5 -->
<g id="edge4_Node000001_Node000005" class="edge">
<title>Node1&#45;&gt;Node5</title>
<g id="a_edge4_Node000001_Node000005"><a xlink:title=" ">
<path fill="none" stroke="#63b8ff" d="M377.01,-56.3C347.63,-45.92 313.75,-33.95 288.35,-24.97"/>
<polygon fill="#63b8ff" stroke="#63b8ff" points="289.7,-21.74 279.11,-21.7 287.37,-28.34 289.7,-21.74"/>
</a>
</g>
</g>
<!-- Node6 -->
<g id="Node000006" class="node">
<title>Node6</title>
<g id="a_Node000006"><a xlink:title=" ">
<polygon fill="#e0e0e0" stroke="#999999" points="340.75,-20.75 297,-20.75 297,0 340.75,0 340.75,-20.75"/>
<text xml:space="preserve" text-anchor="middle" x="318.88" y="-7.25" font-family="Helvetica,sans-Serif" font-size="10.00">string</text>
</a>
</g>
</g>
<!-- Node1&#45;&gt;Node6 -->
<g id="edge5_Node000001_Node000006" class="edge">
<title>Node1&#45;&gt;Node6</title>
<g id="a_edge5_Node000001_Node000006"><a xlink:title=" ">
<path fill="none" stroke="#63b8ff" d="M400.25,-56.4C382.51,-46.58 362.17,-35.33 346.27,-26.53"/>
<polygon fill="#63b8ff" stroke="#63b8ff" points="348.29,-23.65 337.85,-21.87 344.91,-29.78 348.29,-23.65"/>
</a>
</g>
</g>
<!-- Node7 -->
<g id="Node000007" class="node">
<title>Node7</title>
<g id="a_Node000007"><a xlink:title=" ">
<polygon fill="#e0e0e0" stroke="#999999" points="399.25,-20.75 358.5,-20.75 358.5,0 399.25,0 399.25,-20.75"/>
<text xml:space="preserve" text-anchor="middle" x="378.88" y="-7.25" font-family="Helvetica,sans-Serif" font-size="10.00">tuple</text>
</a>
</g>
</g>
<!-- Node1&#45;&gt;Node7 -->
<g id="edge6_Node000001_Node000007" class="edge">
<title>Node1&#45;&gt;Node7</title>
<g id="a_edge6_Node000001_Node000007"><a xlink:title=" ">
<path fill="none" stroke="#63b8ff" d="M420.23,-56.4C412.16,-47.61 403.03,-37.67 395.41,-29.37"/>
<polygon fill="#63b8ff" stroke="#63b8ff" points="398.21,-27.25 388.87,-22.26 393.06,-31.99 398.21,-27.25"/>
</a>
</g>
</g>
<!-- Node8 -->
<g id="Node000008" class="node">
<title>Node8</title>
<g id="a_Node000008"><a xlink:title=" ">
<polygon fill="#e0e0e0" stroke="#999999" points="464.25,-20.75 417.5,-20.75 417.5,0 464.25,0 464.25,-20.75"/>
<text xml:space="preserve" text-anchor="middle" x="440.88" y="-7.25" font-family="Helvetica,sans-Serif" font-size="10.00">vector</text>
</a>
</g>
</g>
<!-- Node1&#45;&gt;Node8 -->
<g id="edge7_Node000001_Node000008" class="edge">
<title>Node1&#45;&gt;Node8</title>
<g id="a_edge7_Node000001_Node000008"><a xlink:title=" ">
<path fill="none" stroke="#63b8ff" d="M440.88,-56.4C440.88,-48.73 440.88,-40.19 440.88,-32.63"/>
<polygon fill="#63b8ff" stroke="#63b8ff" points="444.38,-32.65 440.88,-22.65 437.38,-32.65 444.38,-32.65"/>
</a>
</g>
</g>
<!-- Node9 -->
<g id="Node000009" class="node">
<title>Node9</title>
<g id="a_Node000009"><a xlink:title=" ">
<polygon fill="#e0e0e0" stroke="#999999" points="559.62,-20.75 482.12,-20.75 482.12,0 559.62,0 559.62,-20.75"/>
<text xml:space="preserve" text-anchor="middle" x="520.88" y="-7.25" font-family="Helvetica,sans-Serif" font-size="10.00">gtest/gtest.h</text>
</a>
</g>
</g>
<!-- Node1&#45;&gt;Node9 -->
<g id="edge8_Node000001_Node000009" class="edge">
<title>Node1&#45;&gt;Node9</title>
<g id="a_edge8_Node000001_Node000009"><a xlink:title=" ">
<path fill="none" stroke="#63b8ff" d="M467.51,-56.4C478.37,-47.24 490.71,-36.82 500.79,-28.32"/>
<polygon fill="#63b8ff" stroke="#63b8ff" points="502.76,-31.24 508.14,-22.12 498.24,-25.89 502.76,-31.24"/>
</a>
</g>
</g>
<!-- Node10 -->
<g id="Node000010" class="node">
<title>Node10</title>
<g id="a_Node000010"><a xlink:title=" ">
<polygon fill="#e0e0e0" stroke="#999999" points="700.12,-20.75 577.62,-20.75 577.62,0 700.12,0 700.12,-20.75"/>
<text xml:space="preserve" text-anchor="middle" x="638.88" y="-7.25" font-family="Helvetica,sans-Serif" font-size="10.00">gromacs/math/units.h</text>
</a>
</g>
</g>
<!-- Node1&#45;&gt;Node10 -->
<g id="edge9_Node000001_Node000010" class="edge">
<title>Node1&#45;&gt;Node10</title>
<g id="a_edge9_Node000001_Node000010"><a xlink:title=" ">
<path fill="none" stroke="#63b8ff" d="M507.08,-56.3C537.67,-45.88 572.98,-33.84 599.34,-24.85"/>
<polygon fill="#63b8ff" stroke="#63b8ff" points="600.28,-28.23 608.62,-21.69 598.03,-21.6 600.28,-28.23"/>
</a>
</g>
</g>
<!-- Node11 -->
<g id="Node000011" class="node">
<title>Node11</title>
<g id="a_Node000011"><a xlink:title=" ">
<polygon fill="#e0e0e0" stroke="#999999" points="833.75,-20.75 718,-20.75 718,0 833.75,0 833.75,-20.75"/>
<text xml:space="preserve" text-anchor="middle" x="775.88" y="-7.25" font-family="Helvetica,sans-Serif" font-size="10.00">gromacs/math/vec.h</text>
</a>
</g>
</g>
<!-- Node1&#45;&gt;Node11 -->
<g id="edge10_Node000001_Node000011" class="edge">
<title>Node1&#45;&gt;Node11</title>
<g id="a_edge10_Node000001_Node000011"><a xlink:title=" ">
<path fill="none" stroke="#63b8ff" d="M525.84,-61.75C585.26,-49.78 663.14,-34.09 716.09,-23.42"/>
<polygon fill="#63b8ff" stroke="#63b8ff" points="716.73,-26.86 725.84,-21.46 715.35,-20 716.73,-26.86"/>
</a>
</g>
</g>
<!-- Node12 -->
<g id="Node000012" class="node">
<title>Node12</title>
<g id="a_Node000012"><a xlink:title=" ">
<polygon fill="#e0e0e0" stroke="#999999" points="977.62,-20.75 852.12,-20.75 852.12,0 977.62,0 977.62,-20.75"/>
<text xml:space="preserve" text-anchor="middle" x="914.88" y="-7.25" font-family="Helvetica,sans-Serif" font-size="10.00">testutils/cmdlinetest.h</text>
</a>
</g>
</g>
<!-- Node1&#45;&gt;Node12 -->
<g id="edge11_Node000001_Node000012" class="edge">
<title>Node1&#45;&gt;Node12</title>
<g id="a_edge11_Node000001_Node000012"><a xlink:title=" ">
<path fill="none" stroke="#63b8ff" d="M526.16,-66.73C615.83,-53.96 755.47,-34.08 840.71,-21.94"/>
<polygon fill="#63b8ff" stroke="#63b8ff" points="840.94,-25.44 850.35,-20.56 839.96,-18.51 840.94,-25.44"/>
</a>
</g>
</g>
<!-- Node13 -->
<g id="Node000013" class="node">
<title>Node13</title>
<g id="a_Node000013"><a xlink:title=" ">
<polygon fill="#e0e0e0" stroke="#999999" points="1098.38,-20.75 995.38,-20.75 995.38,0 1098.38,0 1098.38,-20.75"/>
<text xml:space="preserve" text-anchor="middle" x="1046.88" y="-7.25" font-family="Helvetica,sans-Serif" font-size="10.00">testutils/refdata.h</text>
</a>
</g>
</g>
<!-- Node1&#45;&gt;Node13 -->
<g id="edge12_Node000001_Node000013" class="edge">
<title>Node1&#45;&gt;Node13</title>
<g id="a_edge12_Node000001_Node000013"><a xlink:title=" ">
<path fill="none" stroke="#63b8ff" d="M526.14,-71.1C631.35,-61.22 815.97,-42.92 983.9,-21.09"/>
<polygon fill="#63b8ff" stroke="#63b8ff" points="984.22,-24.58 993.69,-19.81 983.32,-17.64 984.22,-24.58"/>
</a>
</g>
</g>
<!-- Node14 -->
<g id="Node000014" class="node">
<title>Node14</title>
<g id="a_Node000014"><a xlink:title=" ">
<polygon fill="#e0e0e0" stroke="#999999" points="1237.75,-20.75 1116,-20.75 1116,0 1237.75,0 1237.75,-20.75"/>
<text xml:space="preserve" text-anchor="middle" x="1176.88" y="-7.25" font-family="Helvetica,sans-Serif" font-size="10.00">testutils/testasserts.h</text>
</a>
</g>
</g>
<!-- Node1&#45;&gt;Node14 -->
<g id="edge13_Node000001_Node000014" class="edge">
<title>Node1&#45;&gt;Node14</title>
<g id="a_edge13_Node000001_Node000014"><a xlink:title=" ">
<path fill="none" stroke="#63b8ff" d="M526.03,-72.77C650.72,-63.54 890.59,-44.68 1104.13,-21.13"/>
<polygon fill="#63b8ff" stroke="#63b8ff" points="1104.51,-24.61 1114.07,-20.03 1103.74,-17.65 1104.51,-24.61"/>
</a>
</g>
</g>
</g>
</svg>
