<?xml version="1.0" encoding="UTF-8" standalone="no"?>
<!DOCTYPE svg PUBLIC "-//W3C//DTD SVG 1.1//EN"
 "http://www.w3.org/Graphics/SVG/1.1/DTD/svg11.dtd">
<!-- Generated by graphviz version 14.1.2 (20260126.1125)
 -->
<!-- Title: src/act/alexandria/tests/mcmcmutatorTest.cpp Pages: 1 -->
<svg width="962pt" height="98pt"
 viewBox="0.00 0.00 962.00 98.00" xmlns="http://www.w3.org/2000/svg" xmlns:xlink="http://www.w3.org/1999/xlink">
<g id="graph0" class="graph" transform="scale(1 1) rotate(0) translate(4 94.25)">
<title>src/act/alexandria/tests/mcmcmutatorTest.cpp</title>
<!-- Node1 -->
<g id="Node000001" class="node">
<title>Node1</title>
<g id="a_Node000001"><a xlink:title="Tests for MCMCMutator class.">
<polygon fill="#999999" stroke="#666666" points="467.25,-90.25 312.5,-90.25 312.5,-56.75 467.25,-56.75 467.25,-90.25"/>
<text xml:space="preserve" text-anchor="start" x="320.5" y="-76.75" font-family="Helvetica,sans-Serif" font-size="10.00">src/act/alexandria</text>
<text xml:space="preserve" text-anchor="middle" x="389.88" y="-64" font-family="Helvetica,sans-Serif" font-size="10.00">/tests/mcmcmutatorTest.cpp</text>
</a>
</g>
</g>
<!-- Node2 -->
<g id="Node000002" class="node">
<title>Node2</title>
<g id="a_Node000002"><a xlink:href="actpre_8h.xhtml" target="_top" xlink:title="Prerequisite header file for ACT build.">
<polygon fill="white" stroke="#666666" points="55.75,-20.75 0,-20.75 0,0 55.75,0 55.75,-20.75"/>
<text xml:space="preserve" text-anchor="middle" x="27.88" y="-7.25" font-family="Helvetica,sans-Serif" font-size="10.00">actpre.h</text>
</a>
</g>
</g>
<!-- Node1&#45;&gt;Node2 -->
<g id="edge1_Node000001_Node000002" class="edge">
<title>Node1&#45;&gt;Node2</title>
<g id="a_edge1_Node000001_Node000002"><a xlink:title=" ">
<path fill="none" stroke="#63b8ff" d="M312.03,-62.12C248.61,-53.2 156.55,-39.21 67.25,-21.09"/>
<polygon fill="#63b8ff" stroke="#63b8ff" points="68.08,-17.69 57.58,-19.11 66.67,-24.55 68.08,-17.69"/>
</a>
</g>
</g>
<!-- Node3 -->
<g id="Node000003" class="node">
<title>Node3</title>
<g id="a_Node000003"><a xlink:title=" ">
<polygon fill="#e0e0e0" stroke="#999999" points="120.25,-20.75 73.5,-20.75 73.5,0 120.25,0 120.25,-20.75"/>
<text xml:space="preserve" text-anchor="middle" x="96.88" y="-7.25" font-family="Helvetica,sans-Serif" font-size="10.00">vector</text>
</a>
</g>
</g>
<!-- Node1&#45;&gt;Node3 -->
<g id="edge2_Node000001_Node000003" class="edge">
<title>Node1&#45;&gt;Node3</title>
<g id="a_edge2_Node000001_Node000003"><a xlink:title=" ">
<path fill="none" stroke="#63b8ff" d="M312.1,-58.96C262.75,-49.93 197.34,-37.17 131.56,-21.26"/>
<polygon fill="#63b8ff" stroke="#63b8ff" points="132.59,-17.91 122.05,-18.93 130.93,-24.71 132.59,-17.91"/>
</a>
</g>
</g>
<!-- Node4 -->
<g id="Node000004" class="node">
<title>Node4</title>
<g id="a_Node000004"><a xlink:title=" ">
<polygon fill="#e0e0e0" stroke="#999999" points="215.62,-20.75 138.12,-20.75 138.12,0 215.62,0 215.62,-20.75"/>
<text xml:space="preserve" text-anchor="middle" x="176.88" y="-7.25" font-family="Helvetica,sans-Serif" font-size="10.00">gtest/gtest.h</text>
</a>
</g>
</g>
<!-- Node1&#45;&gt;Node4 -->
<g id="edge3_Node000001_Node000004" class="edge">
<title>Node1&#45;&gt;Node4</title>
<g id="a_edge3_Node000001_Node000004"><a xlink:title=" ">
<path fill="none" stroke="#63b8ff" d="M333.35,-56.28C298.52,-46.28 254.45,-33.64 221.96,-24.31"/>
<polygon fill="#63b8ff" stroke="#63b8ff" points="223.02,-20.98 212.44,-21.58 221.09,-27.71 223.02,-20.98"/>
</a>
</g>
</g>
<!-- Node5 -->
<g id="Node000005" class="node">
<title>Node5</title>
<g id="a_Node000005"><a xlink:title=" ">
<polygon fill="#e0e0e0" stroke="#999999" points="388.25,-20.75 233.5,-20.75 233.5,0 388.25,0 388.25,-20.75"/>
<text xml:space="preserve" text-anchor="middle" x="310.88" y="-7.25" font-family="Helvetica,sans-Serif" font-size="10.00">gromacs/utility/exceptions.h</text>
</a>
</g>
</g>
<!-- Node1&#45;&gt;Node5 -->
<g id="edge4_Node000001_Node000005" class="edge">
<title>Node1&#45;&gt;Node5</title>
<g id="a_edge4_Node000001_Node000005"><a xlink:title=" ">
<path fill="none" stroke="#63b8ff" d="M369.12,-56.44C357.83,-47.71 343.89,-36.92 332.47,-28.09"/>
<polygon fill="#63b8ff" stroke="#63b8ff" points="334.84,-25.49 324.79,-22.14 330.56,-31.03 334.84,-25.49"/>
</a>
</g>
</g>
<!-- Node6 -->
<g id="Node000006" class="node">
<title>Node6</title>
<g id="a_Node000006"><a xlink:title=" ">
<polygon fill="#e0e0e0" stroke="#999999" points="531.62,-20.75 406.12,-20.75 406.12,0 531.62,0 531.62,-20.75"/>
<text xml:space="preserve" text-anchor="middle" x="468.88" y="-7.25" font-family="Helvetica,sans-Serif" font-size="10.00">testutils/cmdlinetest.h</text>
</a>
</g>
</g>
<!-- Node1&#45;&gt;Node6 -->
<g id="edge5_Node000001_Node000006" class="edge">
<title>Node1&#45;&gt;Node6</title>
<g id="a_edge5_Node000001_Node000006"><a xlink:title=" ">
<path fill="none" stroke="#63b8ff" d="M410.63,-56.44C421.92,-47.71 435.86,-36.92 447.28,-28.09"/>
<polygon fill="#63b8ff" stroke="#63b8ff" points="449.19,-31.03 454.96,-22.14 444.91,-25.49 449.19,-31.03"/>
</a>
</g>
</g>
<!-- Node7 -->
<g id="Node000007" class="node">
<title>Node7</title>
<g id="a_Node000007"><a xlink:title=" ">
<polygon fill="#e0e0e0" stroke="#999999" points="652.38,-20.75 549.38,-20.75 549.38,0 652.38,0 652.38,-20.75"/>
<text xml:space="preserve" text-anchor="middle" x="600.88" y="-7.25" font-family="Helvetica,sans-Serif" font-size="10.00">testutils/refdata.h</text>
</a>
</g>
</g>
<!-- Node1&#45;&gt;Node7 -->
<g id="edge6_Node000001_Node000007" class="edge">
<title>Node1&#45;&gt;Node7</title>
<g id="a_edge6_Node000001_Node000007"><a xlink:title=" ">
<path fill="none" stroke="#63b8ff" d="M445.87,-56.28C480.38,-46.28 524.03,-33.64 556.21,-24.31"/>
<polygon fill="#63b8ff" stroke="#63b8ff" points="557,-27.73 565.63,-21.59 555.05,-21.01 557,-27.73"/>
</a>
</g>
</g>
<!-- Node8 -->
<g id="Node000008" class="node">
<title>Node8</title>
<g id="a_Node000008"><a xlink:title=" ">
<polygon fill="#e0e0e0" stroke="#999999" points="791.75,-20.75 670,-20.75 670,0 791.75,0 791.75,-20.75"/>
<text xml:space="preserve" text-anchor="middle" x="730.88" y="-7.25" font-family="Helvetica,sans-Serif" font-size="10.00">testutils/testasserts.h</text>
</a>
</g>
</g>
<!-- Node1&#45;&gt;Node8 -->
<g id="edge7_Node000001_Node000008" class="edge">
<title>Node1&#45;&gt;Node8</title>
<g id="a_edge7_Node000001_Node000008"><a xlink:title=" ">
<path fill="none" stroke="#63b8ff" d="M467.68,-58.55C527.17,-47.89 608.29,-33.35 664.69,-23.24"/>
<polygon fill="#63b8ff" stroke="#63b8ff" points="665.26,-26.69 674.49,-21.48 664.03,-19.8 665.26,-26.69"/>
</a>
</g>
</g>
<!-- Node9 -->
<g id="Node000009" class="node">
<title>Node9</title>
<g id="a_Node000009"><a xlink:title=" ">
<polygon fill="#e0e0e0" stroke="#999999" points="954,-20.75 809.75,-20.75 809.75,0 954,0 954,-20.75"/>
<text xml:space="preserve" text-anchor="middle" x="881.88" y="-7.25" font-family="Helvetica,sans-Serif" font-size="10.00">testutils/testfilemanager.h</text>
</a>
</g>
</g>
<!-- Node1&#45;&gt;Node9 -->
<g id="edge8_Node000001_Node000009" class="edge">
<title>Node1&#45;&gt;Node9</title>
<g id="a_edge8_Node000001_Node000009"><a xlink:title=" ">
<path fill="none" stroke="#63b8ff" d="M467.56,-62.85C557.63,-51.66 705.54,-33.28 798.12,-21.78"/>
<polygon fill="#63b8ff" stroke="#63b8ff" points="798.41,-25.27 807.9,-20.57 797.55,-18.33 798.41,-25.27"/>
</a>
</g>
</g>
</g>
</svg>
